PathFileType  4	(X/Y/Z) C:\Users\antoi\Documents\MyRepositories\mobilecap\ResultsAnalysis
DataRate	CameraRate	NumFrames	NumMarkers	Units	OrigDataRate	OrigDataStartFrame	OrigNumFrames
100.0	100.0	4	51	mm	100.0	1220	1394
Frame#	Time	r_knee			r_shank_antsup			r_ankle			r_calc			r_5meta			r_toe			L_knee			L_shank_antsup			L_ankle			L_calc			L_5meta			L_toe			r_sh2			r_sh3			r_sh4			L_sh2			L_sh3			r_thigh1			r_thigh2			r_thigh3			r_thigh4			r_thigh5			L_thigh1			L_thigh2			L_thigh3			L_thigh4			r.ASIS			r.PSIS			L.ASIS			L.PSIS			C7			R_Shoulder			L_Shoulder			R_Sternum			L_Sternum			R_humerus			R_elbow_med			R_elbow_lat			R_forearm			R_wrist_radius			R_wrist_ulna			L_humerus			L_elbow_med			L_elbow_lat			L_forearm			L_wrist_radius			L_wrist_ulna			R_HJC			L_HJC			R_HJC_reg			L_HJC_reg			
		X1	Y1	Z1	X2	Y2	Z2	X3	Y3	Z3	X4	Y4	Z4	X5	Y5	Z5	X6	Y6	Z6	X7	Y7	Z7	X8	Y8	Z8	X9	Y9	Z9	X10	Y10	Z10	X11	Y11	Z11	X12	Y12	Z12	X13	Y13	Z13	X14	Y14	Z14	X15	Y15	Z15	X16	Y16	Z16	X17	Y17	Z17	X18	Y18	Z18	X19	Y19	Z19	X20	Y20	Z20	X21	Y21	Z21	X22	Y22	Z22	X23	Y23	Z23	X24	Y24	Z24	X25	Y25	Z25	X26	Y26	Z26	X27	Y27	Z27	X28	Y28	Z28	X29	Y29	Z29	X30	Y30	Z30	X31	Y31	Z31	X32	Y32	Z32	X33	Y33	Z33	X34	Y34	Z34	X35	Y35	Z35	X36	Y36	Z36	X37	Y37	Z37	X38	Y38	Z38	X39	Y39	Z39	X40	Y40	Z40	X41	Y41	Z41	X42	Y42	Z42	X43	Y43	Z43	X44	Y44	Z44	X45	Y45	Z45	X46	Y46	Z46	X47	Y47	Z47	X48	Y48	Z48	X49	Y49	Z49	X50	Y50	Z50	X51	Y51	Z51	

1220	12.19000000	-158.29513	484.84177	-436.45412	-122.35487	414.48765	-453.49203	-258.05107	97.21901	-464.49438	-330.62878	65.04112	-500.53491	-161.03184	44.25534	-425.04854	-110.87085	67.26428	-480.91924	-207.90972	493.25443	-817.50959	-169.01410	406.88124	-843.06314	-254.25897	100.90456	-865.78527	-317.61191	61.32219	-825.75369	-147.55170	46.24627	-911.01704	-106.14955	72.35179	-858.72141	-165.57592	308.06619	-433.63295	-197.49231	442.66281	-423.87943	-234.53916	335.46808	-422.35174	-256.80787	424.03530	-834.10881	-270.76095	304.65317	-861.29702	-225.36152	799.28770	-409.20992	-184.95307	695.51680	-412.17819	-227.44938	652.21709	-384.19523	-329.11155	757.30051	-390.00864	-282.30965	649.14737	-395.36744	-302.25250	748.17536	-812.24044	-234.60076	627.52510	-817.75847	-388.84212	694.66136	-751.72985	-318.78233	575.18567	-777.16806	-227.60237	911.26130	-472.95268	-402.86990	1001.48045	-528.23955	-267.41211	891.59105	-719.19981	-423.65074	1001.84633	-624.45859	-245.35188	1362.30844	-601.86482	-153.65476	1328.44680	-436.80893	-160.88149	1334.67479	-767.82568	-116.79427	1297.32984	-577.04026	-113.30677	1298.74945	-616.65760	-150.35023	1223.95685	-342.59231	-188.40193	1005.75526	-315.97590	-153.08293	1044.80002	-255.08346	-43.32946	1067.14281	-337.72699	49.07926	1081.39777	-421.32781	70.15020	1055.06767	-411.31222	-136.20334	1249.51394	-854.49458	-131.12482	1010.85078	-892.86817	-106.63921	1069.50032	-950.89121	-26.85664	1098.25312	-880.36000	84.28365	1121.53817	-790.12055	105.15596	1100.86181	-807.61073	-325.54765	857.43046	-477.74489	-359.25455	847.07291	-681.18211	-318.02831	853.96440	-489.08156	-352.89182	854.57803	-650.50270	
1221	12.20000000	-161.14325	486.11131	-436.98472	-125.74736	416.02790	-453.97179	-258.21495	97.24328	-464.41750	-330.64008	65.01615	-500.43283	-161.01072	44.27614	-425.05496	-110.98089	67.18479	-480.99370	-210.74485	494.08111	-815.62253	-171.80337	407.88721	-841.38482	-254.51868	101.03818	-865.63109	-317.76032	61.19462	-825.70416	-147.68227	46.36613	-910.49195	-106.32752	72.79884	-858.53460	-167.88691	309.09364	-433.87504	-200.27673	442.46698	-424.64920	-236.92450	335.79670	-422.41456	-259.86849	424.24978	-832.69160	-272.61754	304.90820	-860.51120	-221.09196	802.37442	-409.67587	-182.60880	697.51053	-413.00227	-225.66306	655.43529	-383.81911	-325.45963	762.39668	-388.48503	-280.81469	653.42532	-394.32085	-299.67482	750.81749	-810.42482	-234.56655	628.76830	-815.60693	-387.82249	698.91498	-750.49755	-320.16304	578.09849	-775.65091	-223.42253	916.65090	-472.19738	-399.19437	1005.70748	-527.43299	-263.76992	895.92372	-718.09773	-420.42205	1005.83400	-623.43784	-245.52983	1368.02296	-600.98761	-154.18250	1334.18924	-435.71061	-161.53795	1340.46908	-767.37149	-116.74358	1303.83007	-576.42158	-112.70921	1305.85104	-615.84835	-151.57756	1229.02641	-341.89644	-191.28509	1011.05716	-316.10088	-155.93300	1049.68885	-254.74001	-45.61284	1071.54705	-336.96177	47.43630	1085.25980	-419.95291	68.15323	1058.67882	-409.97985	-138.11682	1254.59521	-853.17152	-134.20365	1015.65873	-890.56081	-109.53961	1073.83352	-949.11648	-29.22345	1102.37001	-879.15792	82.33865	1125.37575	-789.30930	103.00124	1104.54471	-806.78378	-321.12540	862.32401	-476.50486	-355.29922	851.08038	-679.81766	-313.34294	858.66408	-487.80291	-348.97233	858.87724	-648.94444	
1222	12.21000000	-164.11241	487.39271	-437.32461	-129.10920	417.63202	-454.25748	-258.39469	97.23897	-464.47115	-330.61495	65.03766	-500.38183	-161.01154	44.23941	-425.09198	-111.05778	67.25561	-480.89855	-213.55533	494.83419	-813.84946	-174.53711	408.75290	-839.56626	-254.76686	101.19335	-865.46512	-317.91987	61.12797	-825.64771	-147.68822	46.57354	-910.34040	-106.44898	73.07008	-858.37202	-170.14521	310.34585	-433.88629	-202.50438	442.07191	-425.01644	-239.24813	336.21758	-422.39041	-262.79112	424.45982	-831.22224	-274.37806	305.27667	-859.65089	-216.88002	805.07721	-410.24113	-180.47428	699.28474	-413.83260	-223.96604	658.40047	-383.40020	-321.87289	767.26231	-387.11678	-279.27555	657.50189	-393.16125	-297.31654	753.11202	-808.38162	-234.58003	629.82981	-813.36441	-386.85252	702.98360	-749.45143	-321.55900	580.77986	-774.01536	-219.33028	921.58727	-471.57614	-395.68001	1009.73595	-526.51777	-260.26076	900.04872	-717.30464	-417.19433	1009.49829	-622.38921	-245.73609	1373.29986	-600.06598	-154.73498	1339.53309	-434.55210	-162.21702	1345.88537	-766.83957	-116.61719	1309.90358	-575.71989	-112.23658	1312.53958	-615.22941	-152.69657	1233.63411	-341.29870	-193.94895	1015.89407	-316.40138	-158.70725	1054.08433	-254.57147	-47.82933	1075.28847	-336.04494	45.85290	1088.81082	-418.60473	66.24134	1061.96902	-408.67128	-139.55368	1259.35414	-852.00197	-137.23217	1020.19372	-888.35587	-112.36647	1077.77110	-947.33934	-31.58691	1106.19966	-877.81672	80.45615	1128.85830	-788.48312	100.91606	1107.91900	-805.96410	-316.79072	866.81172	-475.44457	-351.51092	854.90295	-678.62663	-309.00727	863.20643	-486.74200	-345.14215	862.80704	-647.76545	
1223	12.22000000	-167.06327	488.72163	-437.35244	-132.41972	419.19063	-454.37398	-258.59656	97.19812	-464.53815	-330.57666	65.08318	-500.34337	-161.02886	44.20165	-425.10030	-111.07037	67.29313	-480.81712	-216.23208	495.43905	-812.00290	-177.21985	409.45655	-837.54085	-254.92280	101.35312	-865.22837	-317.89277	61.19027	-825.64869	-147.59091	46.57493	-910.34252	-106.42144	72.94518	-858.28936	-172.42463	311.59626	-433.69998	-205.25442	442.54394	-424.69588	-241.72835	336.66082	-422.44655	-265.41984	424.65340	-829.73393	-276.15166	305.46979	-858.69612	-212.93225	807.53415	-410.76891	-178.55213	701.05706	-414.54039	-222.38187	661.12334	-383.04554	-318.33922	771.88146	-385.90395	-277.78848	661.32977	-391.97489	-295.07774	755.08516	-806.39305	-234.76035	630.74072	-811.30899	-385.77092	706.93706	-748.50252	-322.91405	583.30571	-772.53047	-215.32560	926.13393	-471.15088	-392.28408	1013.59978	-525.58267	-256.90093	903.92752	-716.76297	-414.04802	1012.75710	-621.34406	-245.91431	1378.15599	-599.10772	-155.31456	1344.37952	-433.56281	-162.88747	1350.89224	-766.22496	-116.43653	1315.52760	-574.95132	-112.52827	1317.99528	-614.61298	-153.74823	1237.85734	-340.68593	-196.57303	1020.34997	-316.73090	-161.42540	1058.00302	-254.58934	-49.95386	1078.63768	-335.21610	44.26844	1092.02500	-417.31843	64.40243	1064.92229	-407.49077	-140.37357	1263.75818	-851.04024	-140.17226	1024.43536	-886.22043	-115.10897	1081.52636	-945.77781	-33.94154	1109.70406	-876.34516	78.54501	1132.07313	-787.65833	98.86590	1110.89205	-805.04189	-312.51434	870.95280	-474.54027	-347.89492	858.47103	-677.57367	-304.90208	867.80935	-485.78287	-341.48225	866.39297	-646.73300	
